# xmcd CD database file
#
# Track frame offsets:
#	150
#	20610
#	38132
#	60807
#	85152
#	106435
#	129742
#	145712
#	166650
#	188545
#	207910
#	229620
#	251330
#
# Disc length: 3512 seconds
#
# Revision: 0
# Processed by: cddbd v1.4PL0 Copyright (c) Steve Scherf et al.
# Submitted via: CDex 1.51
#
DISCID=9c0db60d
DTITLE=Jeff Pitchell - face to face
DYEAR=2001
DGENRE=Blues
TTITLE0=Baby I know
TTITLE1=What's Wrong
TTITLE2=Face to Face
TTITLE3=Whiskey River
TTITLE4=I Ain't Got No Rhythm
TTITLE5=Your Magic Eyes
TTITLE6=My Love
TTITLE7=Out in the Cold
TTITLE8=Spirits Will Rise
TTITLE9=Prisoner of Love
TTITLE10=Love Letter
TTITLE11=Mother Earth
TTITLE12=My Lonely Road
EXTD=YEAR: 2001
EXTT0=
EXTT1=
EXTT2=
EXTT3=
EXTT4=
EXTT5=
EXTT6=
EXTT7=
EXTT8=
EXTT9=
EXTT10=
EXTT11=
EXTT12=
PLAYORDER=
